<svg height="159px" version="1.1" viewBox="0 0 159 159" width="159px" xmlns="http://www.w3.org/2000/svg" xmlns:xlink="http://www.w3.org/1999/xlink"> <!-- Generator: Sketch 51.1 (57501) - http://www.bohemiancoding.com/sketch -->
<title></title>
<desc>Created with Sketch.</desc> <defs> <linearGradient id="linearGradient-1" x1="0%" x2="100%" y1="0%" y2="100%"> <stop offset="0%" stop-color="#215335"></stop> <stop offset="100%" stop-color="#93CB32"></stop> </linearGradient> </defs> <g fill="none" fill-rule="evenodd" id="Page-1" stroke="none" stroke-width="1"> <g id="Home-1" transform="translate(-821.000000, -1461.000000)"> <g id="Group-6" transform="translate(821.000000, 1461.000000)"> <g fill="#F4F4F4" id="Icon"> <circle cx="79.5" cy="79.5" id="Oval-4" r="79.5"></circle> </g> <g fill="url(#linearGradient-1)" fill-rule="nonzero" id="bulb-copy" transform="translate(47.000000, 40.000000)"> <path d="M10.8301464,46.0240999 C11.1561364,46.6050845 10.9626088,47.3479385 10.3980632,47.683421 L5.84129665,50.3909263 C5.65547927,50.5013785 5.45239089,50.5539067 5.25223242,50.5539067 C4.04835166,50.5539067 3.61781047,48.9064878 4.66100931,48.2867816 L9.21777584,45.5792762 C9.78232143,45.2439525 10.5043106,45.442798 10.8301464,46.0240999 Z M60.0884071,48.7331923 C61.1309891,49.3527398 60.7018358,51.0003174 59.497184,51 C58.9377272,51 59.0370354,50.8492392 54.3513532,48.129673 C53.7868076,47.7943492 53.59328,47.0513365 53.91927,46.4703519 C54.2447974,45.8893674 54.9667866,45.6900457 55.5316406,46.0256869 L60.0884071,48.7331923 Z M32.7505836,0 C33.4025636,0 33.930871,0.543849768 33.9310252,1.2148147 L33.9310252,6.62966674 C33.9310252,7.30063167 33.4025636,7.84448144 32.7505836,7.84448144 C32.0986036,7.84448144 31.5701421,7.30047298 31.5701421,6.62966674 L31.5701421,1.2148147 C31.5701421,0.543849768 32.0987578,0 32.7505836,0 Z M20.710234,9.48618726 C21.1672985,10.300613 20.5871782,11.3084887 19.6890865,11.30833 C19.2812135,11.30833 18.8844433,11.0905996 18.6657802,10.7008433 L16.0348836,6.01138874 C15.7090478,5.43040421 15.9024213,4.68755018 16.4669669,4.35206771 C17.0313582,4.01658524 17.7533474,4.2157482 18.0793374,4.79673274 L20.710234,9.48618726 Z M10.6486468,18.762579 C11.2131924,19.0982201 11.4065658,19.8410742 11.08073,20.4219 C10.7533522,21.0055824 10.0304378,21.2007779 9.46835945,20.866565 L4.91159292,18.1590597 C4.34704732,17.8237359 4.15351968,17.0807232 4.47950967,16.4997386 C4.80534547,15.9185954 5.52718046,15.7194324 6.09188026,16.0550736 L10.6486468,18.762579 Z M6.44208049,31.973669 C7.09406049,31.973669 7.62252204,32.5175187 7.62252204,33.1884837 C7.62252204,33.8594486 7.09406049,34.4032984 6.44208049,34.4032984 L1.18044155,34.4032984 C0.528461553,34.4032984 0,33.8592899 0,33.1884837 C0,32.5175187 0.528615758,31.973669 1.18044155,31.973669 L6.44208049,31.973669 Z M63.8195585,32.4894296 C64.4715384,32.4894296 64.9998458,33.0332794 65,33.7042443 C65,34.3752093 64.4715384,34.919059 63.8195585,34.919059 L58.5579195,34.919059 C57.9057853,34.919059 57.377478,34.3750506 57.377478,33.7042443 C57.377478,33.0332794 57.9059395,32.4894296 58.5579195,32.4894296 L63.8195585,32.4894296 Z M60.7709197,16.9464667 C61.0969097,17.5274512 60.9035363,18.270464 60.3388365,18.6057877 L55.78207,21.3132931 C55.2203001,21.6471886 54.4973856,21.4523104 54.1696994,20.8686281 C53.8438636,20.2876435 54.037237,19.5447895 54.6017826,19.209307 L59.1585491,16.5018017 C59.7227863,16.1663192 60.4449297,16.3653235 60.7709197,16.9464667 Z M48.9671211,4.60994803 C49.5316667,4.9454305 49.7250401,5.68828453 49.3992043,6.26926907 L46.7683077,10.9587236 C46.5496446,11.3481626 46.1528744,11.5662103 45.7450014,11.5662103 C44.8458303,11.5662103 44.267252,10.5575412 44.7236997,9.74390889 L47.3547505,5.05461306 C47.6804321,4.47362853 48.4022671,4.27430687 48.9671211,4.60994803 Z" id="Combined-Shape"></path> <path d="M45.5576495,47.2910507 C45.0798264,46.850052 44.3410395,46.8862453 43.9076261,47.3729127 C41.9149923,49.6089733 40.7682779,52.5003961 40.6451213,55.5665718 L36.9949862,55.5665718 L36.9949862,34.7315202 L39.5005434,34.7315202 C42.0175465,34.7315202 44.0654252,32.6472229 44.0654252,30.0852675 C44.0654252,27.5233122 42.0176991,25.4390148 39.5005434,25.4390148 L39.2232504,25.4390148 C36.7062473,25.4390148 34.6585212,27.5233122 34.6585212,30.0852675 L34.6585212,32.3534826 L30.3402579,32.3534826 L30.3402579,30.0852675 C30.3402579,27.5233122 28.2925318,25.4390148 25.7755287,25.4390148 L25.4982357,25.4390148 C22.9812326,25.4390148 20.9335065,27.5233122 20.9335065,30.0852675 C20.9335065,32.6472229 22.9812326,34.7315202 25.4982357,34.7315202 L28.0039455,34.7315202 L28.0039455,44.3945018 C28.0039455,45.0511067 28.5269413,45.5835982 29.172178,45.5835982 C29.8172621,45.5835982 30.3404105,45.051262 30.3404105,44.3945018 L30.3404105,34.7315202 L34.6586739,34.7315202 L34.6586739,55.5665718 L30.3404105,55.5665718 L30.3404105,49.1507323 C30.3404105,48.4941274 29.8174147,47.9616358 29.172178,47.9616358 C28.5270939,47.9616358 28.0039455,48.493972 28.0039455,49.1507323 L28.0039455,55.5665718 L24.3564048,55.5665718 C24.2585815,52.1474729 22.7776504,48.8667782 20.251796,46.5176331 C18.3232586,44.7241246 16.769227,42.487598 15.7580307,40.0497561 C15.5071392,39.444878 14.8216134,39.1612346 14.2275011,39.4169176 C13.6330837,39.6722898 13.3545698,40.3697481 13.6057664,40.9747815 C14.7469869,43.7262466 16.5003276,46.2499893 18.6759412,48.273395 C20.8071451,50.255326 22.0295543,53.0448485 22.0295543,55.9264851 L22.0295543,68.6876416 C22.0295543,70.6751647 23.3945016,72.3434724 25.2198743,72.7754616 C25.2459707,73.8177656 25.4787015,74.821391 25.917609,75.7607073 C26.1952073,76.3547119 26.8926367,76.6054241 27.4742349,76.3238 C28.0569013,76.04171 28.304588,75.3324462 28.0274475,74.7393737 C27.7541223,74.1543786 27.5978493,73.5319476 27.5603072,72.8852841 L37.4374037,72.8852841 C37.2376367,76.2652384 33.8525858,78.4964835 30.7376553,77.2881254 C30.1348443,77.0548109 29.4598486,77.362376 29.2300173,77.9757975 C29.0003387,78.5895298 29.3029651,79.2764252 29.9056235,79.5103611 C34.5872522,81.326238 39.6479651,77.8714118 39.7787522,72.7753063 C41.6041249,72.3433171 42.968767,70.6751647 42.968767,68.6876416 L42.968767,56.1177036 C42.968767,53.440023 43.9164775,50.9019894 45.6374647,48.9708533 C46.0714887,48.4841859 46.0356252,47.73236 45.5576495,47.2910507 Z M36.9949862,30.0851122 C36.9949862,28.8343474 37.9945842,27.8168971 39.223403,27.8168971 L39.5006961,27.8168971 C40.7296675,27.8168971 41.7292655,28.8343474 41.7292655,30.0851122 C41.7292655,31.335877 40.7296675,32.3533273 39.5006961,32.3533273 L36.9949862,32.3533273 L36.9949862,30.0851122 Z M28.0039455,32.3534826 L25.4982357,32.3534826 C24.2694169,32.3534826 23.2698189,31.3360324 23.2698189,30.0852675 C23.2698189,28.8345027 24.2694169,27.8170524 25.4982357,27.8170524 L25.7755287,27.8170524 C27.0043475,27.8170524 28.0039455,28.8345027 28.0039455,30.0852675 L28.0039455,32.3534826 Z M40.6329125,68.6874862 C40.6329125,69.6906456 39.8310975,70.5070912 38.8452345,70.5070912 L26.1535447,70.5070912 C25.1678342,70.5070912 24.3658666,69.6909563 24.3658666,68.6874862 L24.3658666,65.4397228 L40.6329125,65.4397228 L40.6329125,68.6874862 Z M40.6329125,63.0615299 L24.3660193,63.0615299 L24.3660193,57.9446094 L40.6329125,57.9446094 L40.6329125,63.0615299 Z M52.9977108,32.577943 C52.9990843,32.6737853 52.9996948,32.7699382 53,32.8660912 C53,37.4331225 51.5764504,41.7704121 48.8836402,45.40869 C48.4937206,45.9355894 47.7605804,46.0362471 47.2476569,45.6429366 C46.7322916,45.247762 46.6294322,44.5021496 47.0175204,43.9777355 C49.4026681,40.7549812 50.6635351,36.9125919 50.6635351,32.8659358 C50.6635351,32.7809671 50.6629246,32.6956877 50.6618563,32.6104082 C50.5301536,22.70386 42.5055945,14.5260451 32.773783,14.3804954 C22.6979878,14.2195674 14.3366176,22.523049 14.3366176,32.8662465 C14.3364649,33.838028 14.4110914,34.8136929 14.5585131,35.7660574 C14.6587781,36.4148956 14.2235333,37.0235017 13.5862323,37.1257128 C12.9489314,37.2276131 12.3508513,36.7847504 12.2504336,36.1360676 C12.0842409,35.0619197 12,33.9615201 12,32.8662465 C12,14.318361 34.1207223,5.02321493 46.9883718,18.1366733 C50.7911173,22.0123045 52.9252209,27.1410305 52.9977108,32.577943 Z" id="Combined-Shape"></path> </g> </g> </g> </g> </svg>