<svg height="159px" version="1.1" viewBox="0 0 159 159" width="159px" xmlns="http://www.w3.org/2000/svg" xmlns:xlink="http://www.w3.org/1999/xlink"> <!-- Generator: Sketch 51.1 (57501) - http://www.bohemiancoding.com/sketch -->
<title></title>
<desc>Created with Sketch.</desc> <defs> <linearGradient id="linearGradient-1" x1="0%" x2="100%" y1="0%" y2="100%"> <stop offset="0%" stop-color="#215335"></stop> <stop offset="100%" stop-color="#93CB32"></stop> </linearGradient> </defs> <g fill="none" fill-rule="evenodd" id="Page-1" stroke="none" stroke-width="1"> <g id="Home-1" transform="translate(-551.000000, -1461.000000)"> <g id="Group" transform="translate(551.000000, 1461.000000)"> <g fill="url(#linearGradient-1)" id="Icon"> <circle cx="79.5" cy="79.5" id="Oval-4" r="79.5"></circle> </g> <path d="M104.851562,50.147277 C105.927089,49.8404512 106.887366,50.0130381 107.732422,50.6650429 C108.577478,51.3170476 109,52.1799822 109,53.2538723 L109,98.0118572 C109,98.9323345 108.692711,99.7856809 108.078125,100.571922 C107.463539,101.358163 106.714523,101.866335 105.831055,102.096455 L81.4589844,108.712352 C81.0748679,108.827412 80.6811544,108.904117 80.277832,108.94247 C79.8745097,108.980824 79.5192073,109 79.2119141,109 C78.7893859,109 78.3764669,108.971236 77.9731445,108.913706 C77.5698222,108.856176 77.2145198,108.789059 76.9072266,108.712352 L53.1689453,102.153984 C52.2854774,101.885512 51.5364614,101.358163 50.921875,100.571922 C50.3072886,99.7856809 50,98.9323345 50,98.0118572 L50,53.2538723 C50,52.1799822 50.4225218,51.3170476 51.2675781,50.6650429 C52.1126344,50.0130381 53.0729113,49.8404512 54.1484375,50.147277 L77.8867187,56.705645 C78.194012,56.7823514 78.6261365,56.820704 79.1831055,56.820704 C79.7400744,56.820704 80.172199,56.7823514 80.4794922,56.705645 L104.851562,50.147277 Z M77.65625,105.087991 L77.65625,60.3875357 C77.541015,60.3875357 77.4161791,60.3683594 77.2817383,60.3300062 C77.1472975,60.291653 77.0224615,60.2724767 76.9072266,60.2724767 L53.6875,53.8291678 L53.6875,98.0118572 C53.6875,98.1269169 53.7355138,98.2419748 53.831543,98.3570345 C53.9275721,98.4720941 54.013997,98.5487994 54.0908203,98.5871526 L77.65625,105.087991 Z M105.3125,98.0118572 L105.3125,53.8291678 L81.4589844,60.2724767 L81.34375,60.2724767 L81.34375,104.915402 L104.851563,98.5871526 C104.928386,98.5487994 105.024413,98.4720941 105.139648,98.3570345 C105.254883,98.2419748 105.3125,98.1269169 105.3125,98.0118572 Z M86.9902344,71.0880308 C86.6061179,71.0880308 86.2412127,70.9729729 85.8955078,70.7428536 C85.549803,70.5127342 85.3193365,70.1867368 85.2041016,69.7648513 C85.0888666,69.2662595 85.156086,68.7964396 85.4057617,68.3553775 C85.6554374,67.9143155 86.0107399,67.6170825 86.4716797,67.4636696 L99.3779297,63.8393083 C99.8772811,63.7242487 100.347817,63.7913658 100.789551,64.0406618 C101.231285,64.2899577 101.528971,64.663896 101.682617,65.1624878 C101.797852,65.6227265 101.730633,66.0733701 101.480957,66.5144321 C101.231281,66.9554942 100.875979,67.2527272 100.415039,67.40614 L87.5087891,71.0305013 C87.4319658,71.0688545 87.3455408,71.0880308 87.2495117,71.0880308 L86.9902344,71.0880308 Z M86.9902344,82.1337032 C86.6061179,82.1337032 86.2412127,82.0186452 85.8955078,81.7885259 C85.549803,81.5584066 85.3193365,81.2324091 85.2041016,80.8105237 C85.0888666,80.3119318 85.156086,79.8421119 85.4057617,79.4010499 C85.6554374,78.9599878 86.0107399,78.6627548 86.4716797,78.5093419 L99.3779297,74.8849807 C99.8772811,74.769921 100.347817,74.8370382 100.789551,75.0863341 C101.231285,75.33563 101.528971,75.7095683 101.682617,76.2081602 C101.797852,76.6683989 101.730633,77.1190424 101.480957,77.5601045 C101.231281,78.0011665 100.875979,78.2983995 100.415039,78.4518124 L87.5087891,82.0761736 C87.4319658,82.1145269 87.3455408,82.1337032 87.2495117,82.1337032 L86.9902344,82.1337032 Z M86.9902344,93.1793755 C86.6061179,93.1793755 86.2412127,93.0643176 85.8955078,92.8341983 C85.549803,92.604079 85.3193365,92.2780815 85.2041016,91.856196 C85.0888666,91.3576042 85.156086,90.8877843 85.4057617,90.4467222 C85.6554374,90.0056602 86.0107399,89.7084272 86.4716797,89.5550143 L99.3779297,85.9306531 C99.8772811,85.8155934 100.347817,85.8827105 100.789551,86.1320065 C101.231285,86.3813024 101.528971,86.7552407 101.682617,87.2538326 C101.797852,87.7140712 101.730633,88.1647148 101.480957,88.6057768 C101.231281,89.0468389 100.875979,89.3440719 100.415039,89.4974848 L87.5087891,93.121846 C87.4319658,93.1601992 87.3455408,93.1793755 87.2495117,93.1793755 L86.9902344,93.1793755 Z M72.7587891,67.4636696 C73.2197289,67.6170825 73.5750313,67.9143155 73.824707,68.3553775 C74.0743828,68.7964396 74.1416021,69.2662595 74.0263672,69.7648513 C73.9111322,70.1867368 73.6806658,70.5127342 73.3349609,70.7428536 C72.9892561,70.9729729 72.6243509,71.0880308 72.2402344,71.0880308 L71.980957,71.0880308 C71.8849279,71.0880308 71.798503,71.0688545 71.7216797,71.0305013 L58.8154297,67.40614 C58.3544899,67.2527272 57.9991874,66.9554942 57.7495117,66.5144321 C57.499836,66.0733701 57.4326166,65.6227265 57.5478516,65.1624878 C57.7014982,64.663896 57.999184,64.2899577 58.440918,64.0406618 C58.8826519,63.7913658 59.3531876,63.7242487 59.8525391,63.8393083 L72.7587891,67.4636696 Z M72.7587891,78.5093419 C73.2197289,78.6627548 73.5750313,78.9599878 73.824707,79.4010499 C74.0743828,79.8421119 74.1416021,80.3119318 74.0263672,80.8105237 C73.9111322,81.2324091 73.6806658,81.5584066 73.3349609,81.7885259 C72.9892561,82.0186452 72.6243509,82.1337032 72.2402344,82.1337032 L71.980957,82.1337032 C71.8849279,82.1337032 71.798503,82.1145269 71.7216797,82.0761736 L58.8154297,78.4518124 C58.3544899,78.2983995 57.9991874,78.0011665 57.7495117,77.5601045 C57.499836,77.1190424 57.4326166,76.6683989 57.5478516,76.2081602 C57.7014982,75.7095683 57.999184,75.33563 58.440918,75.0863341 C58.8826519,74.8370382 59.3531876,74.769921 59.8525391,74.8849807 L72.7587891,78.5093419 Z M72.7587891,89.5550143 C73.2197289,89.7084272 73.5750313,90.0056602 73.824707,90.4467222 C74.0743828,90.8877843 74.1416021,91.3576042 74.0263672,91.856196 C73.9111322,92.2780815 73.6806658,92.604079 73.3349609,92.8341983 C72.9892561,93.0643176 72.6243509,93.1793755 72.2402344,93.1793755 L71.980957,93.1793755 C71.8849279,93.1793755 71.798503,93.1601992 71.7216797,93.121846 L58.8154297,89.4974848 C58.3544899,89.3440719 57.9991874,89.0468389 57.7495117,88.6057768 C57.499836,88.1647148 57.4326166,87.7140712 57.5478516,87.2538326 C57.7014982,86.7552407 57.999184,86.3813024 58.440918,86.1320065 C58.8826519,85.8827105 59.3531876,85.8155934 59.8525391,85.9306531 L72.7587891,89.5550143 Z" fill="#FFFFFF" id="book-open---simple-line-icons"></path> </g> </g> </g> </svg>