<svg height="159px" version="1.1" viewBox="0 0 159 159" width="159px" xmlns="http://www.w3.org/2000/svg" xmlns:xlink="http://www.w3.org/1999/xlink"> <!-- Generator: Sketch 51.1 (57501) - http://www.bohemiancoding.com/sketch -->
<title></title>
<desc>Created with Sketch.</desc> <defs> <linearGradient id="linearGradient-1" x1="0%" x2="100%" y1="0%" y2="100%"> <stop offset="0%" stop-color="#215335"></stop> <stop offset="100%" stop-color="#93CB32"></stop> </linearGradient> </defs> <g fill="none" fill-rule="evenodd" id="Page-1" stroke="none" stroke-width="1"> <g id="Home-1" transform="translate(-1091.000000, -1461.000000)"> <g id="Group-4" transform="translate(1091.000000, 1461.000000)"> <g fill="#F4F4F4" id="Icon"> <circle cx="79.5" cy="79.5" id="Oval-4" r="79.5"></circle> </g> <path d="M61.5485231,101.516425 C61.78625,101.041817 62.0437836,100.537554 62.3211317,100.00362 C62.5984798,99.4696861 62.9550648,98.9060977 63.3908975,98.3128377 L66.1841749,100.863843 C65.8275846,101.457103 65.5700509,101.931703 65.4115663,102.287659 C65.2530817,102.643615 65.0747892,103.039116 64.8766834,103.474173 C63.9257757,105.412156 62.6381075,106.924946 61.0136402,108.012589 C59.3891728,109.100232 56.0412355,109.644046 50.9697278,109.644046 L49.1273533,109.703372 L49.0679219,107.745624 C49.0679219,102.999544 49.5631789,99.805876 50.5537077,98.1645235 C51.5442366,96.523171 53.0498179,95.2081312 55.0704967,94.2193646 C55.5855718,93.9820607 56.0907339,93.7348727 56.5859983,93.4777934 C57.0812627,93.2207141 57.6062352,92.874651 58.1609313,92.4395937 L60.4787573,95.4058786 C59.8051976,95.9200372 59.1514584,96.3452004 58.5175199,96.6813811 C57.8835815,97.0175617 57.3090833,97.3240747 56.7940083,97.6009294 C55.5657526,98.1941893 54.6346694,98.9258656 54.0007309,99.7959801 C53.3667925,100.666095 53.0102074,102.702923 52.9309651,105.906527 C56.2591421,105.787875 58.378842,105.342937 59.2901286,104.571699 C60.2014151,103.800461 60.9542058,102.782047 61.5485231,101.516425 Z M90.967083,60.3443917 C93.0670042,60.3443917 94.8598345,61.0859555 96.3456278,62.5691054 C97.8314211,64.0522552 98.5743066,65.8418958 98.5743066,67.9380809 C98.5743066,70.034266 97.8314211,71.8239067 96.3456278,73.3070565 C94.8598345,74.7902063 93.0670042,75.5317701 90.967083,75.5317701 C88.8671618,75.5317701 87.0743315,74.7902063 85.5885382,73.3070565 C84.1027449,71.8239067 83.3598594,70.034266 83.3598594,67.9380809 C83.3598594,65.8418958 84.1027449,64.0522552 85.5885382,62.5691054 C87.0743315,61.0859555 88.8671618,60.3443917 90.967083,60.3443917 Z M90.967083,71.7349255 C91.997233,71.7349255 92.8886956,71.3591999 93.6414976,70.6077373 C94.3942995,69.8562747 94.7706948,68.9663982 94.7706948,67.9380809 C94.7706948,66.9097637 94.3942995,66.0198872 93.6414976,65.2684246 C92.8886956,64.516962 91.997233,64.1412363 90.967083,64.1412363 C89.8973119,64.1412363 88.9959441,64.516962 88.2629528,65.2684246 C87.5299614,66.0198872 87.1634712,66.9097637 87.1634712,67.9380809 C87.1634712,68.9663982 87.5299614,69.8562747 88.2629528,70.6077373 C88.9959441,71.3591999 89.8973119,71.7349255 90.967083,71.7349255 Z M109.925711,50.8522802 C109.925711,50.9709322 109.945521,51.7322711 109.985142,53.1363196 C110.024763,54.5403681 109.985143,56.2607961 109.866279,58.2976552 C109.747416,60.3345143 109.509692,62.5592057 109.153102,64.9717961 C108.796512,67.3843865 108.222013,69.6585155 107.42959,71.7942512 C106.756031,73.574031 105.98343,75.1659213 105.111764,76.5699698 C104.240099,77.9740183 102.853379,79.5065835 100.951564,81.1677113 C99.6440659,82.3542312 97.6234173,83.6396084 94.8895577,85.0238816 C92.155698,86.4081548 89.7190336,87.7133071 87.5794913,88.9393776 C86.7870682,89.3744349 86.0045621,89.7995981 85.2319496,90.2148801 C84.4593371,90.6301621 83.8353133,90.9960002 83.3598594,91.3124055 L83.3598594,101.101145 C83.3598594,101.378 83.3004286,101.644963 83.1815651,101.902042 C83.0627017,102.159122 82.9042194,102.36676 82.7061137,102.524962 L75.633773,109.525394 C75.4752884,109.683597 75.2870907,109.802247 75.0691744,109.881349 C74.851258,109.96045 74.6234398,110 74.3857129,110 C74.3064706,110 74.2173243,109.990112 74.1182714,109.970337 C74.0192185,109.950562 73.9300723,109.920899 73.85083,109.881349 C73.5338607,109.802247 73.2565168,109.634159 73.0187899,109.37708 C72.781063,109.120001 72.6225807,108.833263 72.5433384,108.516858 L70.2255125,98.7281176 L65.9464492,93.9820619 C64.9162992,92.8350926 64.0644572,91.8957785 63.3908975,91.1640913 C62.7173379,90.432404 62.2022706,89.8292654 61.8456802,89.3546575 L50.4942763,86.7443268 C50.1376859,86.6652255 49.8405317,86.5169128 49.6028048,86.2993841 C49.3650779,86.0818555 49.1867854,85.8148925 49.0679219,85.4984872 C48.9886796,85.1425312 48.9787744,84.8063557 49.0382062,84.4899504 C49.0976379,84.1735451 49.246215,83.8966946 49.4839419,83.6593906 L56.4374197,76.0657014 C56.6355255,75.8679481 56.8534386,75.7196353 57.0911655,75.6207587 C57.3288924,75.521882 57.5864261,75.4724444 57.8637742,75.4724444 L68.4425694,75.4724444 C68.7595387,74.8791845 69.1161237,74.2068333 69.5123353,73.4553707 C69.9085468,72.7039082 70.3047524,71.9129068 70.7009639,71.0823429 C71.731114,68.9861578 72.8305845,66.810904 73.9994085,64.5565162 C75.1682326,62.3021285 76.3667545,60.4828253 77.5950103,59.0985521 C79.0213719,57.3978736 80.5269532,55.9839587 82.1117993,54.8567648 C83.6966455,53.7295709 85.4201398,52.8298068 87.2823341,52.1574456 C89.818088,51.2082297 92.3339935,50.506216 94.8301262,50.0513833 C97.326259,49.5965507 99.5648206,49.2999252 101.545878,49.1614979 C103.526936,49.0230706 105.121664,48.973633 106.330109,49.0131836 L108.142768,49.0725093 C108.618221,49.11206 109.024332,49.2999228 109.361112,49.6361035 C109.697892,49.9722841 109.886089,50.3776723 109.925711,50.8522802 Z M103.863704,70.4297602 C104.4184,68.926835 104.854227,67.3349448 105.171196,65.6540416 C105.488165,63.9731385 105.725888,62.3219231 105.884373,60.7003459 C106.042858,59.0787688 106.132004,57.5758661 106.151814,56.191593 C106.171625,54.8073198 106.18153,53.6801428 106.18153,52.8100282 C105.349486,52.8100282 104.299541,52.8396908 103.031664,52.8990168 C101.763787,52.9583428 100.347352,53.0868805 98.7823166,53.2846338 C97.217281,53.4823871 95.5631227,53.7691251 93.8197919,54.1448564 C92.0764611,54.5205877 90.3331564,55.0446261 88.5898257,55.7169874 C87.0049795,56.2706967 85.558829,57.022148 84.251331,57.9713639 C82.9438329,58.9205798 81.6759749,60.1070818 80.4477192,61.5309057 C79.4175692,62.7569762 78.3379089,64.4675167 77.208706,66.6625785 C76.0795031,68.8576402 75.0394634,70.9043563 74.0885557,72.8027881 C73.5338595,73.9102066 73.0088871,74.9385084 72.5136227,75.8877243 C72.0183583,76.8369402 71.572627,77.6477166 71.1764154,78.3200779 C70.9783097,78.5969325 70.7405863,78.8243454 70.4632382,79.0023234 C70.1858901,79.1803014 69.8887359,79.269289 69.5717667,79.269289 L58.7552457,79.269289 L54.4761824,83.778042 L63.1531718,85.73579 C63.3512776,85.7753407 63.5394752,85.8544408 63.7177704,85.9730928 C63.8960656,86.0917448 64.064453,86.23017 64.2229376,86.3883727 C64.4210434,86.6256766 65.5601345,87.9011664 67.6402451,90.2148801 C69.7203557,92.5285938 71.6320477,94.6544101 73.3753785,96.5923925 C73.494242,96.7110445 73.5932934,96.8395822 73.6725357,96.9780095 C73.751778,97.1164369 73.8112088,97.2647496 73.85083,97.4229523 L75.5149101,104.601362 L79.5562476,100.21126 L79.5562476,90.3038686 C79.5562476,90.027014 79.6156785,89.760051 79.734542,89.5029717 C79.8534054,89.2458924 80.0316979,89.0184795 80.2694249,88.8207262 C80.6260152,88.5043209 81.2599442,88.0890452 82.1712308,87.5748866 C83.0825173,87.060728 84.2711341,86.4081518 85.7371168,85.6171386 C87.6785534,84.5097201 89.986451,83.2737804 92.6608789,81.9092825 C95.3353068,80.5447847 97.2668091,79.3483951 98.4554437,78.3200779 C100.04029,76.896254 101.189286,75.6207643 101.902467,74.4935704 C102.615648,73.3663766 103.269387,72.0117867 103.863704,70.4297602 Z" fill="url(#linearGradient-1)" id="Rocket---simple-line-icons"></path> </g> </g> </g> </svg>